<?xml version="1.0" encoding="UTF-8" standalone="no"?>
<!-- Created with Inkscape (http://www.inkscape.org/) -->

<svg
   width="210mm"
   height="297mm"
   viewBox="0 0 210 297"
   version="1.1"
   id="svg5"
   inkscape:version="1.3.2 (091e20e, 2023-11-25, custom)"
   sodipodi:docname="Minimig Case Cover ONOFF Switch.svg"
   xmlns:inkscape="http://www.inkscape.org/namespaces/inkscape"
   xmlns:sodipodi="http://sodipodi.sourceforge.net/DTD/sodipodi-0.dtd"
   xmlns="http://www.w3.org/2000/svg"
   xmlns:svg="http://www.w3.org/2000/svg">
  <sodipodi:namedview
     id="namedview7"
     pagecolor="#c3c3c3"
     bordercolor="#eeeeee"
     borderopacity="1"
     inkscape:showpageshadow="0"
     inkscape:pageopacity="0"
     inkscape:pagecheckerboard="0"
     inkscape:deskcolor="#505050"
     inkscape:document-units="mm"
     showgrid="false"
     inkscape:pageshadow="0"
     inkscape:zoom="1.0444209"
     inkscape:cx="193.40862"
     inkscape:cy="345.16736"
     inkscape:window-width="1920"
     inkscape:window-height="1009"
     inkscape:window-x="-8"
     inkscape:window-y="-8"
     inkscape:window-maximized="1"
     inkscape:current-layer="layer1" />
  <defs
     id="defs2" />
  <g
     inkscape:label="Layer 1"
     inkscape:groupmode="layer"
     id="layer1"
     inkscape:power="100"
     inkscape:feed="12"
     inkscape:engrave="0">
    <path
       d="m 128.22099,2.029083 0.51329,0.6 0.14972,0.175 0.049,0.08 0.48401,0.7900202 0.39,0.942 0.0146,0.061 0.22336,0.931 0.007,0.093 0.0727,0.924 v 0.1 4.0959988 16.384003 16.383995 16.383983 16.383998 16.384001 16.383998 8.192 4.096 2.048 0.164 l -0.08,1.017 -0.20801,0.867 -0.03,0.125 -0.39,0.942 -0.48401,0.79002 -0.049,0.08 -0.0949,0.111 -0.56806,0.664 -0.77499,0.663 -0.56101,0.34369 -0.30899,0.18931 -0.4541,0.188 -0.4879,0.202 -0.79699,0.19122 -0.19471,0.0468 -1.017,0.08 H 122.789 118.69299 114.597 110.50101 106.405 102.30901 98.213 94.117 90.021 85.925 81.82899 77.733 73.63699 69.541 65.44501 61.349 57.25301 53.157 49.061 44.965 40.869 36.77299 32.677 28.58099 24.485 20.38901 16.293 12.19701 8.101 6.625 l -0.572,-0.045 -0.445,-0.035 -0.992,-0.23801 -0.48791,-0.20199 -0.12309,-0.051 -0.331,-0.13704 -0.87,-0.533 -0.35419,-0.303 -0.42081,-0.36 -0.072,-0.0842 -0.49604,-0.57984 -0.095,-0.111 -0.533,-0.87 -0.0178,-0.043 -0.3722,-0.899 -0.03,-0.125 -0.20796,-0.867 -0.0123,-0.157 -0.0677,-0.86 v -0.164 -2.048 -2.048 -2.048 -2.048 -2.048 -2.048 -2.048 -2.048 -2.048 -2.048 -2.048 -2.047997 -2.048 -2.048 -2.048004 -2.047998 -2.048001 -2.048 -2.048 -2.048001 -2.048 -2.047998 -2.048003 -2.048 -2.047996 -2.048001 -2.048 -2.048 -2.048001 -2.048 -2.048 -2.048001 -2.048 -2.048 -2.048001 -2.047996 -2.048001 -2.048 V 43.589037 41.54104 39.493036 37.44504 35.397043 33.349039 31.301043 29.253038 27.205042 25.157038 23.109041 21.061037 19.01304 16.965036 14.91704 12.869043 10.821039 8.7730402 v -2.048 -0.1 l 0.0727,-0.924 0.007,-0.093 0.22337,-0.931 0.0146,-0.061 0.39,-0.942 0.0129,-0.021 L 1.36571,2.80404 1.51542,2.62904 1.95671,2.1132 2.02871,2.029 2.52434,1.605 2.80371,1.366 3.67371,0.833 4.00471,0.69596 4.28239,0.581 4.61571,0.443 l 0.992,-0.238 0.445,-0.035 0.572,-0.045 h 1.476 4.09601 8.192 8.19198 8.192 8.19201 8.192 8.192 8.192 8.192 8.192 8.192 8.19201 8.192 8.19198 4.09601 0.836 l 1.017,0.08 0.19501,0.0468 0.79699,0.19121 0.33332,0.138 0.60868,0.252 0.30899,0.18931 0.56101,0.34369 z"
       fill="none"
       stroke="#ff0000"
       stroke-width="0.001mm"
       id="path3491"
       inkscape:power="50"
       inkscape:feed="50"
       inkscape:engrave="0"
       style="stroke:#000000;stroke-width:0.25;stroke-miterlimit:4;stroke-dasharray:none;stroke-opacity:1" />
    <path
       id="rect5258"
       style="opacity:1;fill:none;stroke:#000000;stroke-width:0.156249;stroke-linecap:round;stroke-linejoin:round;stop-color:#000000"
       d="m 14.560253,80.078125 h 11.879493 c 0.821099,0 1.482129,0.66103 1.482129,1.482129 v 11.879493 c 0,0.821099 -0.66103,1.482129 -1.482129,1.482129 H 14.560253 c -0.821099,0 -1.482129,-0.66103 -1.482129,-1.482129 V 81.560254 c 0,-0.821099 0.66103,-1.482129 1.482129,-1.482129 z"
       inkscape:power="50"
       inkscape:feed="50"
       inkscape:engrave="0" />
    <path
       id="rect5258-9"
       style="opacity:1;mix-blend-mode:darken;fill:none;stroke:#000000;stroke-width:0.156249;stroke-linecap:round;stroke-linejoin:round;stroke-opacity:1;stop-color:#000000"
       d="m 70.560254,109.07812 h 11.879493 c 0.821099,0 1.482129,0.66103 1.482129,1.48213 v 11.87949 c 0,0.8211 -0.66103,1.48213 -1.482129,1.48213 H 70.560254 c -0.821099,0 -1.482129,-0.66103 -1.482129,-1.48213 v -11.87949 c 0,-0.8211 0.66103,-1.48213 1.482129,-1.48213 z"
       inkscape:power="50"
       inkscape:feed="50"
       inkscape:engrave="0" />
    <path
       id="rect1"
       style="opacity:1;fill:none;stroke:#000000;stroke-width:0.252966"
       d="m 105.64017,14.947842 h 13.74703 v 8.747034 h -13.74703 z" />
  </g>
  <g
     inkscape:groupmode="layer"
     id="layer2"
     inkscape:power="15"
     inkscape:feed="100"
     inkscape:engrave="1"
     inkscape:label="Layer 2"
     style="display:inline">
    <path
       style="fill:#000000;stroke-width:0.264583"
       d="m 9.1714649,28.8006 c 0,-0.705556 -0.088194,-0.79375 -0.79375,-0.79375 -0.7055556,0 -0.7937499,-0.08819 -0.7937499,-0.79375 0,-0.705556 -0.088194,-0.79375 -0.79375,-0.79375 -0.730754,0 -0.79375,-0.0735 -0.79375,-0.926042 0,-0.852546 0.062996,-0.926042 0.79375,-0.926042 0.7055556,0 0.79375,-0.08819 0.79375,-0.79375 0,-0.705555 -0.088194,-0.79375 -0.79375,-0.79375 -0.7496527,0 -0.79375,-0.0588 -0.79375,-1.058333 0,-0.999537 0.044097,-1.058333 0.79375,-1.058333 0.730754,0 0.79375,-0.0735 0.79375,-0.926042 0,-0.852546 -0.062996,-0.926042 -0.79375,-0.926042 -0.7496527,0 -0.79375,-0.0588 -0.79375,-1.058333 0,-0.999537 0.044097,-1.058334 0.79375,-1.058334 0.7055556,0 0.79375,-0.08819 0.79375,-0.79375 0,-0.705555 -0.088194,-0.79375 -0.79375,-0.79375 -0.7496527,0 -0.79375,-0.0588 -0.79375,-1.058333 0,-0.999537 0.044097,-1.058333 0.79375,-1.058333 0.7055556,0 0.79375,-0.08819 0.79375,-0.79375 0,-0.705556 -0.088194,-0.79375 -0.79375,-0.79375 -0.730754,0 -0.79375,-0.0735 -0.79375,-0.926042 0,-0.8525463 0.062996,-0.9260418 0.79375,-0.9260418 0.7055556,0 0.79375,-0.088194 0.79375,-0.79375 0,-0.7055556 0.088194,-0.79375 0.7937499,-0.79375 0.7055557,0 0.79375,-0.088194 0.79375,-0.79375 0,-0.7496528 0.058796,-0.79375 1.0583331,-0.79375 0.999537,0 1.058334,0.044097 1.058334,0.79375 0,0.7055556 0.08819,0.79375 0.79375,0.79375 0.705555,0 0.793749,-0.088194 0.793749,-0.79375 0,-0.7496528 0.0588,-0.79375 1.058334,-0.79375 0.999537,0 1.058333,0.044097 1.058333,0.79375 0,0.6702778 0.102894,0.79375 0.661458,0.79375 0.558565,0 0.661459,-0.1234722 0.661459,-0.79375 0,-0.7496528 0.0588,-0.79375 1.058333,-0.79375 0.999537,0 1.058333,0.044097 1.058333,0.79375 0,0.730754 0.0735,0.79375 0.926042,0.79375 0.852546,0 0.926042,-0.062996 0.926042,-0.79375 0,-0.730754 0.0735,-0.79375 0.926041,-0.79375 0.852546,0 0.926042,0.062996 0.926042,0.79375 0,0.7055556 0.08819,0.79375 0.79375,0.79375 0.705556,0 0.79375,-0.088194 0.79375,-0.79375 0,-0.730754 0.07349,-0.79375 0.926042,-0.79375 0.852546,0 0.926041,0.062996 0.926041,0.79375 0,0.7055556 0.08819,0.79375 0.79375,0.79375 0.705556,0 0.79375,0.088194 0.79375,0.79375 0,0.7307541 0.0735,0.79375 0.926042,0.79375 0.881944,0 0.926041,0.044097 0.926041,0.9260418 0,0.881944 -0.0441,0.926042 -0.926041,0.926042 -0.852546,0 -0.926042,0.063 -0.926042,0.79375 0,0.730754 0.0735,0.79375 0.926042,0.79375 0.903993,0 0.926041,0.0252 0.926041,1.058333 0,1.033135 -0.02205,1.058333 -0.926041,1.058333 -0.852546,0 -0.926042,0.063 -0.926042,0.79375 0,0.730754 0.0735,0.79375 0.926042,0.79375 0.903993,0 0.926041,0.0252 0.926041,1.058334 0,1.033135 -0.02205,1.058333 -0.926041,1.058333 -0.881945,0 -0.926042,0.0441 -0.926042,0.926042 0,0.881944 0.0441,0.926042 0.926042,0.926042 0.881944,0 0.926041,0.0441 0.926041,0.926041 0,0.881945 -0.0441,0.926042 -0.926041,0.926042 -0.881945,0 -0.926042,0.0441 -0.926042,0.926042 0,0.852546 0.063,0.926041 0.79375,0.926041 0.730754,0 0.79375,0.0735 0.79375,0.926042 0,0.852546 -0.063,0.926042 -0.79375,0.926042 -0.705556,0 -0.79375,0.08819 -0.79375,0.79375 0,0.705555 -0.08819,0.79375 -0.79375,0.79375 -0.705555,0 -0.79375,0.08819 -0.79375,0.79375 0,0.749652 -0.0588,0.79375 -1.058333,0.79375 -0.999537,0 -1.058333,-0.0441 -1.058333,-0.79375 0,-0.670278 -0.102894,-0.79375 -0.661459,-0.79375 -0.558565,0 -0.661458,0.123472 -0.661458,0.79375 0,0.749652 -0.0588,0.79375 -1.058333,0.79375 -0.999537,0 -1.058334,-0.0441 -1.058334,-0.79375 0,-0.705556 -0.08819,-0.79375 -0.79375,-0.79375 -0.705555,0 -0.79375,0.08819 -0.79375,0.79375 0,0.730754 -0.0735,0.79375 -0.926041,0.79375 -0.852547,0 -0.926042,-0.063 -0.926042,-0.79375 0,-0.730754 -0.0735,-0.79375 -0.926042,-0.79375 -0.852546,0 -0.926041,0.063 -0.926041,0.79375 0,0.749652 -0.0588,0.79375 -1.058334,0.79375 -0.999537,0 -1.058333,-0.0441 -1.058333,-0.79375 0,-0.670278 -0.102893,-0.79375 -0.661458,-0.79375 -0.558565,0 -0.661458,0.123472 -0.661458,0.79375 0,0.749652 -0.0588,0.79375 -1.058334,0.79375 -0.9995368,0 -1.0583331,-0.0441 -1.0583331,-0.79375 z M 26.369381,18.084974 V 8.9568492 H 17.373548 8.3777149 V 18.084974 27.2131 h 8.9958331 8.995833 z m -11.377083,4.762501 v -2.248959 h -2.38125 -2.38125 v -2.513542 -2.513541 h 2.38125 2.38125 v -2.38125 -2.38125 h 2.38125 2.38125 v 2.38125 2.38125 h 2.38125 2.38125 v 2.513541 2.513542 h -2.38125 -2.38125 v 2.248959 2.248958 h -2.38125 -2.38125 z m 4.7625,-4.762501 V 15.836016 H 17.50584 15.256881 v 2.248958 2.248959 h 2.248959 2.248958 z m 65.616665,5.688542 v -0.79375 h 2.248958 c 2.2225,0 2.248959,-0.0078 2.248959,-0.661458 0,-0.653677 -0.02646,-0.661458 -2.248959,-0.661458 H 85.371463 V 20.8631 c 0,-0.705556 -0.08819,-0.79375 -0.79375,-0.79375 -0.785733,0 -0.79375,-0.0147 -0.79375,-1.455209 0,-1.440509 0.008,-1.455208 0.79375,-1.455208 0.705556,0 0.79375,-0.0882 0.79375,-0.79375 v -0.79375 h 3.704167 3.704166 v 3.704166 3.704167 h -0.79375 c -0.705556,0 -0.79375,0.08819 -0.79375,0.79375 v 0.79375 H 88.28188 85.371463 Z m 4.497917,-5.159375 v -1.455208 h -1.5875 -1.5875 v 1.455208 1.455209 h 1.5875 1.5875 z m -57.679166,-0.79375 v -5.159375 h 1.437635 c 1.371642,0 1.441476,0.0334 1.521354,0.727604 0.06576,0.571492 0.239832,0.745567 0.811324,0.811324 0.571492,0.06576 0.727604,0.22187 0.727604,0.727605 0,0.539038 0.129249,0.643884 0.79375,0.643884 0.670277,0 0.79375,-0.102894 0.79375,-0.661459 0,-0.529166 0.132292,-0.661458 0.661458,-0.661458 0.558565,0 0.661458,-0.123472 0.661458,-0.79375 0,-0.785732 0.01471,-0.79375 1.455209,-0.79375 h 1.455208 v 5.159375 5.159375 H 41.053756 39.598547 V 20.06935 17.158933 h -0.793749 c -0.670277,0 -0.79375,0.102893 -0.79375,0.661458 0,0.529167 -0.132292,0.661458 -0.661459,0.661458 -0.529166,0 -0.661458,-0.132291 -0.661458,-0.661458 0,-0.558565 -0.123473,-0.661458 -0.79375,-0.661458 h -0.79375 v 2.910417 2.910416 h -1.455208 -1.455209 z m 13.49375,4.365625 c 0,-0.705555 -0.08819,-0.79375 -0.79375,-0.79375 h -0.79375 v -2.910417 -2.910416 h 1.455208 1.455209 v 2.910416 2.910417 h 0.79375 c 0.705556,0 0.79375,0.08819 0.79375,0.79375 0,0.785733 -0.01471,0.79375 -1.455209,0.79375 -1.440508,0 -1.455208,-0.008 -1.455208,-0.79375 z m 4.233333,-2.910417 v -3.704166 h 3.704167 3.704166 v 0.79375 c 0,0.705555 0.08819,0.79375 0.79375,0.79375 h 0.79375 v 2.910417 2.910416 H 57.457922 56.002714 V 20.06935 17.158933 h -1.5875 -1.5875 v 2.910417 2.910416 h -1.455208 -1.455209 z m 11.90625,2.910417 c 0,-0.705555 -0.08819,-0.79375 -0.79375,-0.79375 h -0.79375 v -2.910417 -2.910416 h 1.455208 1.455209 v 2.910416 2.910417 h 0.79375 c 0.705556,0 0.79375,0.08819 0.79375,0.79375 0,0.785733 -0.01471,0.79375 -1.455209,0.79375 -1.440508,0 -1.455208,-0.008 -1.455208,-0.79375 z m 4.233333,-4.365625 v -5.159375 h 1.437635 c 1.371642,0 1.441476,0.0334 1.521354,0.727604 0.06576,0.571492 0.239832,0.745567 0.811324,0.811324 0.571492,0.06576 0.727604,0.22187 0.727604,0.727605 0,0.539038 0.129249,0.643884 0.79375,0.643884 0.670277,0 0.79375,-0.102894 0.79375,-0.661459 0,-0.529166 0.132291,-0.661458 0.661458,-0.661458 0.558564,0 0.661458,-0.123472 0.661458,-0.79375 0,-0.785732 0.01471,-0.79375 1.455209,-0.79375 h 1.455208 v 5.159375 5.159375 H 74.920422 73.465213 V 20.06935 17.158933 h -0.79375 c -0.670277,0 -0.79375,0.102893 -0.79375,0.661458 0,0.529167 -0.132291,0.661458 -0.661458,0.661458 -0.529167,0 -0.661458,-0.132291 -0.661458,-0.661458 0,-0.558565 -0.123473,-0.661458 -0.79375,-0.661458 h -0.79375 v 2.910417 2.910416 H 67.512088 66.05688 Z m 13.49375,4.365625 c 0,-0.705555 -0.08819,-0.79375 -0.79375,-0.79375 h -0.79375 v -2.910417 -2.910416 h 1.455208 1.455208 v 2.910416 2.910417 h 0.79375 c 0.705557,0 0.79375,0.08819 0.79375,0.79375 0,0.785733 -0.01471,0.79375 -1.455208,0.79375 -1.440508,0 -1.455208,-0.008 -1.455208,-0.79375 z M 44.096464,13.190183 c 0,-0.785733 0.01471,-0.79375 1.455208,-0.79375 1.440508,0 1.455209,0.008 1.455209,0.79375 0,0.785732 -0.01471,0.79375 -1.455209,0.79375 -1.440508,0 -1.455208,-0.008 -1.455208,-0.79375 z m 16.139583,0 c 0,-0.785733 0.01471,-0.79375 1.455208,-0.79375 1.440508,0 1.455209,0.008 1.455209,0.79375 0,0.785732 -0.01471,0.79375 -1.455209,0.79375 -1.440508,0 -1.455208,-0.008 -1.455208,-0.79375 z m 17.727083,0 c 0,-0.785733 0.01471,-0.79375 1.455208,-0.79375 1.440508,0 1.455208,0.008 1.455208,0.79375 0,0.785732 -0.01471,0.79375 -1.455208,0.79375 -1.440508,0 -1.455208,-0.008 -1.455208,-0.79375 z"
       id="path49164"
       inkscape:power="50"
       inkscape:feed="50"
       inkscape:engrave="0"
       inkscape:label="path49164" />
    <path
       style="fill:#000000;stroke-width:0.0259863"
       d="m 102.80252,122.79421 c -0.007,-0.0179 -0.009,-0.5704 -0.006,-1.22786 l 0.007,-1.19537 h 0.28585 0.28585 l 0.007,0.46126 0.007,0.46126 h 0.63546 0.63547 l 0.007,-0.46126 0.007,-0.46126 h 0.28585 0.28584 v 1.22136 1.22135 H 104.96 104.67415 l -0.013,-0.46775 -0.013,-0.46775 -0.54497,-0.008 c -0.29974,-0.004 -0.58332,-8.3e-4 -0.63018,0.007 l -0.0852,0.016 v 0.43538 c 0,0.304 -0.009,0.44481 -0.0312,0.46658 -0.0441,0.0441 -0.53763,0.043 -0.5546,-0.002 z m 2.79825,-0.002 c -0.0221,-0.0267 -0.0284,-0.35343 -0.0234,-1.22873 l 0.007,-1.19239 h 1.22135 1.22135 v 1.22136 1.22135 h -0.27289 -0.27285 l -0.007,-0.45838 c -0.007,-0.44921 -0.008,-0.45868 -0.0649,-0.47389 -0.0754,-0.0202 -1.10579,-0.0202 -1.1812,0 -0.0567,0.0152 -0.058,0.0247 -0.0649,0.47389 l -0.007,0.45838 -0.26246,0.007 c -0.20009,0.006 -0.26963,-0.002 -0.29261,-0.0289 z m 1.86738,-1.6805 v -0.1819 h -0.64966 -0.64965 v 0.1819 0.1819 h 0.64965 0.64966 z m 0.92142,1.68261 c -0.007,-0.0179 -0.009,-0.5704 -0.006,-1.22785 l 0.007,-1.19538 h 1.22136 1.22135 v 0.27286 0.27287 l -0.942,0.007 -0.94201,0.007 v 0.64932 0.64934 h 0.91732 c 0.67882,0 0.92542,0.008 0.9485,0.0312 0.0198,0.0197 0.0312,0.11837 0.0312,0.26766 0,0.14927 -0.0115,0.24797 -0.0312,0.26765 -0.0461,0.0461 -2.40791,0.0449 -2.42561,-8.3e-4 z m 2.78053,0 c -0.007,-0.0179 -0.009,-0.5704 -0.006,-1.22785 l 0.007,-1.19538 h 0.28578 0.28585 l 0.007,0.46127 0.007,0.46125 h 0.1673 0.1673 l 0.007,-0.22738 0.007,-0.22738 0.22639,-0.007 0.22638,-0.007 0.007,-0.22638 0.007,-0.22638 h 0.28585 0.28585 v 0.27285 0.27286 l -0.22639,0.007 -0.22637,0.007 -0.007,0.22638 -0.007,0.22639 -0.22738,0.007 -0.22739,0.007 v 0.17987 0.17989 l 0.22739,0.007 0.22738,0.007 0.007,0.22637 0.007,0.22639 0.22637,0.007 0.22639,0.007 v 0.28585 0.28585 h -0.28585 -0.28585 l -0.007,-0.22638 -0.007,-0.22639 -0.22638,-0.007 -0.22639,-0.007 -0.0129,-0.23387 -0.0129,-0.23388 -0.0848,-0.008 c -0.0466,-0.005 -0.11971,-8.1e-4 -0.16241,0.009 l -0.0776,0.0171 v 0.43451 c 0,0.30329 -0.009,0.44392 -0.0312,0.46568 -0.0441,0.0441 -0.53764,0.043 -0.5546,-8.3e-4 z m 2.31288,2.9e-4 c -0.007,-0.018 -0.009,-0.57066 -0.006,-1.22811 l 0.007,-1.19537 h 1.22135 1.22136 v 0.27286 0.27285 l -0.942,0.007 -0.94201,0.007 v 0.181 0.18099 l 0.47426,0.007 0.47424,0.007 0.007,0.25758 c 0.004,0.15735 -0.003,0.26831 -0.0202,0.28519 -0.0179,0.0179 -0.16894,0.0247 -0.42766,0.0194 -0.22002,-0.005 -0.42438,-4e-4 -0.45411,0.009 -0.0474,0.015 -0.0541,0.0378 -0.0541,0.184 v 0.16683 l 0.942,0.007 0.942,0.007 v 0.28585 0.28584 l -1.21557,0.007 c -0.95858,0.005 -1.21823,-1.9e-4 -1.22813,-0.026 z m 2.78077,8.2e-4 c -0.007,-0.0183 -0.01,-0.57129 -0.006,-1.22874 l 0.007,-1.19537 h 1.22135 1.22136 l 0.007,0.72589 c 0.003,0.39925 -0.003,0.73623 -0.016,0.74885 -0.0126,0.0126 -0.30911,0.0218 -0.65885,0.0204 -0.34973,-0.002 -0.65534,0.005 -0.6791,0.014 -0.034,0.013 -0.0432,0.0518 -0.0432,0.1821 v 0.16554 l 0.46126,0.007 0.46125,0.007 v 0.28585 0.28585 l -0.49037,0.007 c -0.33969,0.005 -0.50138,-0.002 -0.52622,-0.0226 -0.025,-0.0207 -0.0358,-0.0922 -0.0358,-0.23446 v -0.20471 h -0.1679 -0.1679 l -0.007,0.22738 -0.007,0.22737 -0.27983,0.007 c -0.20934,0.006 -0.28305,-8e-4 -0.29262,-0.026 z m 1.85877,-1.68351 v -0.1819 h -0.63667 -0.63666 v 0.1819 0.18191 h 0.63666 0.63667 z m -14.71892,-1.29305 c -0.008,-0.008 -0.0153,-0.30532 -0.0153,-0.65982 v -0.64455 l -0.31832,-0.007 -0.31834,-0.007 v -0.20788 -0.20789 h 0.85755 0.85755 v 0.20789 0.20788 l -0.31789,0.007 -0.31789,0.007 -0.007,0.65537 -0.007,0.65535 -0.19909,0.004 c -0.1095,0.002 -0.20597,-0.002 -0.21439,-0.0108 z m 1.29634,-0.012 c -0.007,-0.0187 -0.01,-0.414 -0.007,-0.87839 l 0.007,-0.84434 h 0.20789 0.20789 l 0.007,0.31834 0.007,0.31832 h 0.42718 0.42717 l 0.007,-0.31832 0.007,-0.31834 h 0.20789 0.2079 v 0.87054 0.87054 h -0.20791 -0.20788 l -0.007,-0.33132 -0.007,-0.33133 h -0.42799 -0.428 v 0.31248 c 0,0.3004 -0.002,0.31331 -0.0585,0.33386 -0.1019,0.0372 -0.35642,0.0358 -0.37097,-0.002 z m 1.93914,-0.0276 c -0.0321,-0.0869 -0.0362,-1.55466 -0.004,-1.63797 l 0.0269,-0.0708 0.85156,0.007 0.85157,0.007 v 0.20789 0.20789 l -0.64317,0.007 -0.64316,0.007 v 0.10269 0.10269 l 0.31833,0.007 0.31834,0.007 v 0.20789 0.2079 l -0.31834,0.007 -0.31833,0.007 v 0.10269 0.10269 l 0.64316,0.007 0.64317,0.007 v 0.22089 0.22088 l -0.85236,0.005 -0.85237,0.005 z m 2.52952,0.0219 c -0.0324,-0.0237 -0.0371,-0.15468 -0.0312,-0.87248 l 0.007,-0.84456 h 0.87055 0.87053 v 0.53273 0.53271 l -0.48724,0.007 -0.48724,0.007 v 0.10338 0.10337 h 0.31265 c 0.2271,0 0.31558,0.009 0.32333,0.0325 0.006,0.0179 0.0156,0.10633 0.0216,0.19659 0.016,0.23976 0.007,0.24451 -0.40808,0.23416 l -0.34049,-0.008 -0.007,-0.16241 -0.007,-0.16241 h -0.10271 -0.10269 v 0.14201 c 0,0.11039 -0.0105,0.14761 -0.0469,0.16716 -0.062,0.0332 -0.3349,0.0272 -0.38345,-0.008 z m 1.28797,-1.18431 v -0.10395 h -0.42877 -0.42878 v 0.10395 0.10394 h 0.42878 0.42877 z m 0.65277,1.18612 c -0.0214,-0.0258 -0.0279,-0.27337 -0.023,-0.87739 l 0.007,-0.84146 h 0.87054 0.87054 v 0.2079 0.20788 l -0.64316,0.007 -0.64315,0.007 v 0.10269 0.10269 l 0.31832,0.007 0.31834,0.007 v 0.2079 0.20788 l -0.31834,0.007 -0.31832,0.007 v 0.10269 0.1027 l 0.64315,0.007 0.64316,0.007 v 0.22088 0.22088 l -0.84757,0.007 c -0.696,0.006 -0.85291,3.9e-4 -0.87741,-0.029 z m 2.60712,0.0122 c -0.007,-0.007 -0.0116,-0.30166 -0.0116,-0.65616 v -0.64454 l -0.33132,-0.007 -0.33133,-0.007 v -0.20789 -0.20788 h 0.87054 0.87054 v 0.20788 0.20789 l -0.31788,0.007 -0.31789,0.007 -0.007,0.65536 -0.007,0.65536 -0.20278,8.1e-4 c -0.11153,3.9e-4 -0.208,-0.004 -0.21439,-0.0108 z m 1.28851,-0.0149 c -0.0184,-0.0222 -0.0253,-0.31084 -0.0207,-0.87461 l 0.007,-0.84145 h 0.87054 0.87054 v 0.53272 0.53271 l -0.48724,0.007 -0.48724,0.007 v 0.10257 0.10257 l 0.31833,0.007 0.31834,0.007 v 0.22088 0.22089 h -0.36382 -0.36381 l -0.007,-0.16241 -0.007,-0.16242 h -0.11445 -0.11446 l -0.007,0.16242 -0.007,0.16241 -0.18724,0.004 c -0.12449,0.002 -0.19645,-0.007 -0.21475,-0.0291 z m 1.29852,-1.18334 v -0.10395 h -0.44178 -0.44176 v 0.10395 0.10394 h 0.44176 0.44178 z m 0.6677,1.18922 c -0.0411,-0.0301 -0.0442,-0.10297 -0.0379,-0.87739 l 0.007,-0.84455 h 0.87054 0.87054 v 0.87054 0.87053 l -0.83261,0.007 c -0.63879,0.005 -0.84304,-8.1e-4 -0.87743,-0.026 z m 1.28126,-0.86439 v -0.42878 h -0.44177 -0.44176 v 0.42878 0.42877 h 0.44176 0.44177 z m -15.52817,-1.52738 c -0.007,-0.0182 -0.01,-0.2668 -0.006,-0.55224 l 0.007,-0.519 0.37031,-0.007 0.37031,-0.007 v -0.28516 -0.28513 l -0.55221,-0.003 c -0.30372,-0.002 -0.56976,-0.006 -0.59119,-0.009 -0.0215,-0.002 -0.0542,-0.007 -0.0729,-0.009 -0.0235,-0.002 -0.0315,-0.038 -0.026,-0.11429 l 0.008,-0.11045 1.26682,-0.007 1.26684,-0.007 v -0.12937 -0.12939 l -1.01996,-0.007 -1.01996,-0.007 v -2.93645 c 0,-3.14179 -0.002,-3.10426 0.13457,-3.78101 0.16443,-0.81883 0.51891,-1.70542 0.96706,-2.41881 0.0846,-0.13461 0.14809,-0.25393 0.14115,-0.26513 -0.007,-0.0112 -0.21181,-0.019 -0.4553,-0.0173 -0.24349,0.002 -0.45233,-0.007 -0.46411,-0.0186 -0.0118,-0.0119 0.11543,-0.19123 0.28265,-0.39847 l 0.30402,-0.3768 1.04391,-0.007 1.04392,-0.007 0.0943,-0.11015 0.0943,-0.11015 -0.47515,-0.007 c -0.26134,-0.004 -0.48471,-0.0167 -0.49639,-0.0284 -0.0474,-0.0474 0.65548,-0.64324 1.11666,-0.94663 1.01012,-0.6645 2.02635,-1.0337 3.28188,-1.19229 0.1884,-0.0238 0.61066,-0.0344 1.36428,-0.0342 0.90377,2.1e-4 1.15175,0.008 1.44224,0.0471 1.46352,0.19554 2.77265,0.77066 3.87598,1.70278 0.13357,0.11284 0.2712,0.23589 0.30584,0.27344 l 0.063,0.0683 h 0.53679 0.5368 l 0.1863,0.19213 c 0.10245,0.10567 0.18629,0.20507 0.18629,0.22089 0,0.0205 -0.28748,0.0288 -1.0038,0.0288 h -1.0038 l 0.0681,0.0845 c 0.0374,0.0465 0.1471,0.18677 0.24369,0.31181 l 0.17563,0.22737 0.5012,1e-5 0.50118,2e-5 0.18216,0.27936 c 0.54603,0.83734 0.92214,1.83163 1.09566,2.89645 0.0549,0.33691 0.0565,0.41646 0.0649,3.26199 l 0.009,2.91666 1.01891,0.007 1.01891,0.007 v 0.23388 0.23388 l -1.26683,0.007 c -1.24138,0.007 -1.26682,0.007 -1.26682,0.058 0,0.0494 0.0226,0.0515 0.63015,0.0582 l 0.63018,0.007 0.007,0.33419 c 0.005,0.22423 -0.002,0.34608 -0.0226,0.37031 -0.023,0.0276 -0.11441,0.0361 -0.39003,0.0361 h -0.36007 l -0.007,0.50023 -0.007,0.50023 -7.9591,0.007 c -6.44693,0.005 -7.96151,1.9e-4 -7.97185,-0.0267 z m 5.09468,-4.47503 c 0.21537,-0.0553 0.59578,-0.24797 0.76294,-0.38643 0.19067,-0.15793 0.34858,-0.35634 0.47175,-0.59276 l 0.10361,-0.19887 -0.17649,-0.0536 c -0.336,-0.10205 -0.65695,-0.3712 -0.83016,-0.69619 -0.21916,-0.4112 -0.21898,-0.9044 4.9e-4,-1.31905 0.16958,-0.32039 0.60341,-0.65898 0.90644,-0.70744 0.0644,-0.0103 0.0997,-0.0298 0.0997,-0.055 0,-0.0215 -0.0497,-0.13394 -0.11045,-0.2499 -0.14182,-0.27075 -0.47332,-0.61446 -0.72917,-0.75606 -0.98706,-0.54627 -2.20032,-0.19033 -2.69079,0.78939 -0.20867,0.41684 -0.21563,0.4739 -0.2065,1.69252 l 0.008,1.05146 0.073,0.20788 c 0.1063,0.30289 0.25903,0.54494 0.48588,0.77005 0.29088,0.28864 0.63705,0.4665 1.05646,0.5428 0.17023,0.0309 0.58442,0.0103 0.77543,-0.0387 z m 6.68242,-0.002 c 0.52819,-0.12904 1.00396,-0.50577 1.2457,-0.98636 0.0834,-0.16587 0.0873,-0.18301 0.0445,-0.19814 -0.48904,-0.17306 -0.74954,-0.36989 -0.9419,-0.7117 -0.13124,-0.23321 -0.16967,-0.39001 -0.16875,-0.68864 0.002,-0.42544 0.12477,-0.71088 0.44091,-1.01943 0.16059,-0.15673 0.45576,-0.32276 0.62169,-0.34969 0.0514,-0.008 0.0983,-0.023 0.10418,-0.0325 0.0191,-0.0308 -0.16283,-0.37379 -0.28334,-0.53433 -0.23802,-0.31709 -0.64395,-0.58542 -1.0465,-0.69176 -0.27462,-0.0726 -0.69715,-0.0728 -0.97247,-6e-4 -0.54723,0.14352 -1.00595,0.51399 -1.24341,1.00418 -0.19727,0.40723 -0.1953,0.39113 -0.1953,1.59815 0,1.0581 8.3e-4,1.08211 0.0609,1.27333 0.19839,0.63534 0.63526,1.0891 1.24935,1.29762 0.33136,0.11251 0.72756,0.12709 1.08448,0.0399 z"
       id="path1"
       inkscape:power="50"
       inkscape:feed="50"
       inkscape:engrave="0" />
  </g>
</svg>
