<?xml version="1.0" encoding="UTF-8" standalone="no"?>
<!-- Created with Inkscape (http://www.inkscape.org/) -->

<svg
   width="126.5mm"
   height="28.500002mm"
   viewBox="0 0 126.5 28.500002"
   version="1.1"
   id="svg5"
   inkscape:version="1.2.1 (9c6d41e410, 2022-07-14)"
   sodipodi:docname="minimig_side4.svg"
   xmlns:inkscape="http://www.inkscape.org/namespaces/inkscape"
   xmlns:sodipodi="http://sodipodi.sourceforge.net/DTD/sodipodi-0.dtd"
   xmlns="http://www.w3.org/2000/svg"
   xmlns:svg="http://www.w3.org/2000/svg">
  <sodipodi:namedview
     id="namedview7"
     pagecolor="#c3c3c3"
     bordercolor="#eeeeee"
     borderopacity="1"
     inkscape:showpageshadow="0"
     inkscape:pageopacity="0"
     inkscape:pagecheckerboard="0"
     inkscape:deskcolor="#505050"
     inkscape:document-units="mm"
     showgrid="false"
     inkscape:zoom="2.0888419"
     inkscape:cx="203.70139"
     inkscape:cy="62.235443"
     inkscape:window-width="1920"
     inkscape:window-height="1009"
     inkscape:window-x="-8"
     inkscape:window-y="-8"
     inkscape:window-maximized="1"
     inkscape:current-layer="layer1" />
  <defs
     id="defs2" />
  <g
     inkscape:label="Layer 1"
     inkscape:groupmode="layer"
     id="layer1"
     transform="translate(8.7940299,-73.449641)">
    <path
       d="m -5.5351428,101.69031 v -9.551323 h -2.9995556 v -8.878694 h 2.9995556 V 74.3816 73.708972 h 6.37405575 v 3.228615 H 9.087691 v -3.228615 h 8.248778 v 3.228615 h 8.248778 v -3.228615 h 8.248778 v 3.228615 h 8.248778 v -3.228615 h 8.248778 v 3.228615 h 8.248778 v -3.228615 h 8.248778 v 3.228615 h 8.248778 v -3.228615 h 8.248778 v 3.228615 h 8.248778 v -3.228615 h 8.248778 v 3.228615 h 8.248781 v -3.228615 h 6.37405 v 9.551321 h 2.99956 v 8.878694 h -2.99956 v 8.878693 0.67263 h -6.37405 v -3.228617 h -8.248781 v 3.228617 h -8.248778 v -3.228617 h -8.248778 v 3.228617 h -8.248778 v -3.228617 h -8.248778 v 3.228617 h -8.248778 v -3.228617 h -8.248778 v 3.228617 h -8.248778 v -3.228617 h -8.248778 v 3.228617 h -8.248778 v -3.228617 h -8.248778 v 3.228617 H 9.087691 V 98.461693 H 0.83891295 v 3.228617 z"
       id="left_outsideCutPath"
       stroke="#FF0000"
       stroke-width="0.1"
       style="font-size:12px;fill:none;fill-rule:evenodd;stroke:#000000;stroke-width:0.518663;stroke-linecap:round;stroke-dasharray:none;stroke-opacity:1"
       vector-effect="non-scaling-stroke" />
    <rect
       style="font-size:12px;fill:none;fill-rule:evenodd;stroke:#000000;stroke-width:0.0408964;stroke-linecap:round;stroke-dasharray:none;stroke-opacity:1;stop-color:#000000"
       id="rect1182"
       width="29.959103"
       height="4.9591036"
       x="6.726418"
       y="-83.929192"
       transform="scale(1,-1)" />
  </g>
</svg>
