<?xml version="1.0" encoding="UTF-8" standalone="no"?>
<!-- Created with Inkscape (http://www.inkscape.org/) -->

<svg
   width="126.5mm"
   height="126.5mm"
   viewBox="0 0 126.5 126.5"
   version="1.1"
   id="svg5"
   inkscape:version="1.2.1 (9c6d41e410, 2022-07-14)"
   sodipodi:docname="minimig_top_engraving.svg"
   inkscape:export-filename="minimig_top_engraving.png"
   inkscape:export-xdpi="96"
   inkscape:export-ydpi="96"
   xmlns:inkscape="http://www.inkscape.org/namespaces/inkscape"
   xmlns:sodipodi="http://sodipodi.sourceforge.net/DTD/sodipodi-0.dtd"
   xmlns="http://www.w3.org/2000/svg"
   xmlns:svg="http://www.w3.org/2000/svg">
  <sodipodi:namedview
     id="namedview7"
     pagecolor="#c3c3c3"
     bordercolor="#eeeeee"
     borderopacity="1"
     inkscape:showpageshadow="0"
     inkscape:pageopacity="0"
     inkscape:pagecheckerboard="0"
     inkscape:deskcolor="#505050"
     inkscape:document-units="mm"
     showgrid="false"
     inkscape:zoom="1.0444209"
     inkscape:cx="132.60937"
     inkscape:cy="321.70938"
     inkscape:window-width="1920"
     inkscape:window-height="1009"
     inkscape:window-x="-8"
     inkscape:window-y="-8"
     inkscape:window-maximized="1"
     inkscape:current-layer="layer1" />
  <defs
     id="defs2">
    <inkscape:path-effect
       effect="fillet_chamfer"
       id="path-effect1718"
       is_visible="true"
       lpeversion="1"
       nodesatellites_param="F,0,0,1,0,1.8520833,0,1 @ F,0,0,1,0,1.8520833,0,1 @ F,0,0,1,0,1.8520833,0,1 @ F,0,0,1,0,1.8520833,0,1"
       unit="px"
       method="auto"
       mode="F"
       radius="7"
       chamfer_steps="1"
       flexible="false"
       use_knot_distance="true"
       apply_no_radius="true"
       apply_with_radius="true"
       only_selected="false"
       hide_knots="false" />
    <inkscape:path-effect
       effect="fillet_chamfer"
       id="path-effect1634"
       is_visible="true"
       lpeversion="1"
       nodesatellites_param="F,0,0,1,0,1.8520833,0,1 @ F,0,0,1,0,1.8520833,0,1 @ F,0,0,1,0,1.8520833,0,1 @ F,0,0,1,0,1.8520833,0,1"
       unit="px"
       method="auto"
       mode="F"
       radius="7"
       chamfer_steps="1"
       flexible="false"
       use_knot_distance="true"
       apply_no_radius="true"
       apply_with_radius="true"
       only_selected="false"
       hide_knots="false" />
    <inkscape:path-effect
       effect="fillet_chamfer"
       id="path-effect1628"
       is_visible="true"
       lpeversion="1"
       nodesatellites_param="F,0,0,1,0,1.8520833,0,1 @ F,0,0,1,0,1.8520833,0,1 @ F,0,0,1,0,1.8520833,0,1 @ F,0,0,1,0,1.8520833,0,1"
       unit="px"
       method="auto"
       mode="F"
       radius="7"
       chamfer_steps="1"
       flexible="false"
       use_knot_distance="true"
       apply_no_radius="true"
       apply_with_radius="true"
       only_selected="false"
       hide_knots="false" />
  </defs>
  <g
     inkscape:label="Layer 1"
     inkscape:groupmode="layer"
     id="layer1"
     transform="translate(18.10887,-25.957479)">
    <g
       aria-label="Minimig
"
       transform="rotate(-90)"
       id="text1412"
       style="font-style:italic;font-size:2.82223px;font-family:'Bodoni Bd BT';-inkscape-font-specification:'Bodoni Bd BT, Italic';stroke-width:0.0499999;stop-color:#000000" />
    <g
       id="g3662"
       transform="translate(0,3.2179175)">
      <path
         d="m -123.86328,10.835876 v -0.68213 q 0.0413,0 0.13436,-0.01033 0.0827,-0.01033 0.13436,-0.01033 0.71313,0 1.0852,-0.3203945 0.38241,-0.3203944 0.54777,-1.1162127 l 2.05673,-9.8082025 q 0.031,-0.1963708 0.0413,-0.2997238 0.0207,-0.1136883 0.0207,-0.1550295 0,-0.4134121 -0.33073,-0.5994476 -0.32039,-0.1860355 -1.04386,-0.1860355 h -0.12403 v -0.6304534 h 5.31235 l 1.0542,8.6713191 4.54753,-8.6713191 h 4.98162 v 0.6304534 h -1.52963 l -2.66651,12.5057161 h 1.52963 v 0.68213 h -6.45956 v -0.68213 h 1.51928 l 2.3978,-11.2138032 -6.20119,11.8959332 h -0.74414 l -1.53996,-12.1336452 -1.95337,9.5084787 q -0.0103,0.051676 -0.031,0.1446943 -0.13436,0.651124 -0.13436,0.9095066 0,0.4650887 0.28939,0.68213 0.29973,0.2067056 0.96119,0.2067056 h 0.2067 v 0.68213 z"
         style="font-style:italic;font-size:21.1667px;font-family:'Bodoni Bd BT';-inkscape-font-specification:'Bodoni Bd BT, Italic';stroke-width:0.05;stop-color:#000000"
         id="path3605"
         transform="rotate(-90)" />
      <path
         d="m -103.52341,-1.0600572 q 0,-0.6097829 0.42375,-1.0438656 0.42375,-0.4340827 1.03353,-0.4340827 0.60978,0 1.04387,0.444418 0.44442,0.4340827 0.44442,1.0335303 0,0.59944758 -0.44442,1.0335303 -0.43409,0.42374742 -1.04387,0.42374742 -0.60978,0 -1.03353,-0.42374742 -0.42375,-0.42374741 -0.42375,-1.0335303 z m -1.92236,9.5498199 1.25057,-5.2710045 h -1.46761 V 2.629646 q 1.0542,-0.020671 2.17041,-0.093018 1.11621,-0.082682 2.27377,-0.206706 l -1.56063,6.8109646 q -0.0517,0.2170413 -0.0827,0.4030768 -0.0207,0.1860355 -0.0207,0.2583826 0,0.1757001 0.0724,0.258383 0.0827,0.07235 0.25838,0.07235 0.40308,0 0.86817,-0.5994479 0.47542,-0.5994476 1.02319,-1.7880074 l 0.44442,0.1860354 q -0.66146,1.6433132 -1.48828,2.3564489 -0.81649,0.713136 -2.02572,0.713136 -0.89917,0 -1.38493,-0.382406 -0.48576,-0.382406 -0.48576,-1.0955422 0,-0.1757002 0.0413,-0.4547533 0.0413,-0.2790532 0.11369,-0.578777 z"
         style="font-style:italic;font-size:21.1667px;font-family:'Bodoni Bd BT';-inkscape-font-specification:'Bodoni Bd BT, Italic';stroke-width:0.05;stop-color:#000000"
         id="path3607"
         transform="rotate(-90)" />
      <path
         d="m -96.836466,10.835876 h -2.790532 l 1.736331,-7.6377884 h -1.446942 l 0.01033,-0.5787769 q 1.023195,-0.010335 2.108402,-0.082683 1.095542,-0.072347 2.263431,-0.206706 l -0.630453,2.5631551 q 0.940512,-1.3332541 1.829348,-1.943037 0.888836,-0.6201181 1.87069,-0.6201181 0.930177,0 1.457278,0.4340827 0.537436,0.4237474 0.537436,1.1678892 0,0.1963708 -0.02067,0.3617356 -0.02067,0.1550296 -0.06201,0.3100591 l -1.20923,4.8989336 q -0.01034,0.031006 -0.02067,0.093018 0,0.051676 0,0.1653649 0,0.2273766 0.07235,0.3100592 0.08268,0.08268 0.268718,0.08268 0.361736,0 0.888836,-0.6304532 0.527101,-0.6407888 0.909507,-1.6329779 l 0.444418,0.1757002 q -0.527101,1.467613 -1.405601,2.1910849 -0.868166,0.723471 -2.108402,0.723471 -0.795818,0 -1.260907,-0.361736 -0.454753,-0.372071 -0.454753,-0.9921892 0,-0.2170413 0.05168,-0.547771 0.05168,-0.341065 0.134359,-0.68213 l 1.002524,-4.0204329 q 0.06201,-0.2790531 0.09302,-0.4754239 0.03101,-0.206706 0.03101,-0.3203944 0,-0.206706 -0.113688,-0.2997238 -0.103353,-0.103353 -0.310059,-0.103353 -0.620119,0 -1.632978,1.1368833 -1.002525,1.126548 -1.271243,2.2427608 z"
         style="font-style:italic;font-size:21.1667px;font-family:'Bodoni Bd BT';-inkscape-font-specification:'Bodoni Bd BT, Italic';stroke-width:0.05;stop-color:#000000"
         id="path3609"
         transform="rotate(-90)" />
      <path
         d="m -85.726012,-1.0600572 q 0,-0.6097829 0.423747,-1.0438656 0.423748,-0.4340827 1.033531,-0.4340827 0.609782,0 1.043865,0.444418 0.444418,0.4340827 0.444418,1.0335303 0,0.59944758 -0.444418,1.0335303 -0.434083,0.42374742 -1.043865,0.42374742 -0.609783,0 -1.033531,-0.42374742 -0.423747,-0.42374741 -0.423747,-1.0335303 z m -1.922366,9.5498199 1.250571,-5.2710045 H -87.86542 V 2.629646 q 1.054201,-0.020671 2.170414,-0.093018 1.116212,-0.082682 2.273766,-0.206706 l -1.56063,6.8109646 q -0.05168,0.2170413 -0.08268,0.4030768 -0.02067,0.1860355 -0.02067,0.2583826 0,0.1757001 0.07235,0.258383 0.08268,0.07235 0.258382,0.07235 0.403077,0 0.868166,-0.5994479 0.475424,-0.5994476 1.023195,-1.7880074 l 0.444418,0.1860354 q -0.66146,1.6433132 -1.488284,2.3564489 -0.816489,0.713136 -2.025719,0.713136 -0.899172,0 -1.384931,-0.382406 -0.485759,-0.382406 -0.485759,-1.0955422 0,-0.1757002 0.04134,-0.4547533 0.04134,-0.2790532 0.113689,-0.578777 z"
         style="font-style:italic;font-size:21.1667px;font-family:'Bodoni Bd BT';-inkscape-font-specification:'Bodoni Bd BT, Italic';stroke-width:0.05;stop-color:#000000"
         id="path3611"
         transform="rotate(-90)" />
      <path
         d="m -79.163096,10.835876 h -2.666508 l 1.757002,-7.6171178 h -1.333255 V 2.6193107 h 0.48576 q 0.930177,0 1.850019,-0.051677 0.930177,-0.051676 1.850019,-0.1550295 l -0.547771,2.387455 q 0.661459,-1.1678893 1.591637,-1.8190133 0.930177,-0.6511241 1.922366,-0.6511241 0.826824,0 1.312584,0.4857592 0.485759,0.4857592 0.485759,1.3125835 0,0.1963707 -0.02067,0.3824062 -0.01033,0.1860354 -0.04134,0.3514003 0.713136,-1.2402364 1.653648,-1.8810251 0.950848,-0.6511241 2.067061,-0.6511241 0.85783,0 1.312583,0.4030768 0.465089,0.3927415 0.465089,1.1368833 0,0.1757002 -0.03101,0.4030768 -0.03101,0.2170414 -0.09302,0.4650886 l -1.188559,4.878263 q -0.01034,0.031006 -0.02067,0.082682 0,0.041341 0,0.1653649 0,0.1550298 0.08268,0.2273768 0.08268,0.06201 0.258383,0.06201 0.382406,0 0.868165,-0.5891116 0.48576,-0.5891123 0.950848,-1.6536485 l 0.444418,0.1757002 q -0.589112,1.4986189 -1.436607,2.2117549 -0.837159,0.7028 -2.015384,0.7028 -0.785483,0 -1.240236,-0.382406 -0.444418,-0.392741 -0.444418,-1.0955418 0,-0.2067061 0.04134,-0.4960945 0.04134,-0.2997238 0.124024,-0.6304535 l 1.074871,-4.4131744 q 0.02067,-0.062012 0.04134,-0.1550295 0.05168,-0.2067061 0.05168,-0.2997238 0,-0.1653648 -0.103353,-0.2687179 -0.09302,-0.103353 -0.237712,-0.103353 -0.723471,0 -1.736331,1.1885598 -1.002524,1.1885599 -1.291913,2.4494668 l -0.950848,4.0411028 h -2.666508 l 1.581301,-6.7902933 q 0.03101,-0.093018 0.04134,-0.1963708 0.01033,-0.1136883 0.01033,-0.341065 0,-0.1550295 -0.09302,-0.2480473 -0.09302,-0.103353 -0.248047,-0.103353 -0.733807,0 -1.736331,1.260907 -1.002524,1.2609069 -1.395266,3.0075731 z"
         style="font-style:italic;font-size:21.1667px;font-family:'Bodoni Bd BT';-inkscape-font-specification:'Bodoni Bd BT, Italic';stroke-width:0.05;stop-color:#000000"
         id="path3613"
         transform="rotate(-90)" />
      <path
         d="m -62.822982,-1.0600572 q 0,-0.6097829 0.423748,-1.0438656 0.423747,-0.4340827 1.03353,-0.4340827 0.609783,0 1.043866,0.444418 0.444418,0.4340827 0.444418,1.0335303 0,0.59944758 -0.444418,1.0335303 -0.434083,0.42374742 -1.043866,0.42374742 -0.609783,0 -1.03353,-0.42374742 -0.423748,-0.42374741 -0.423748,-1.0335303 z m -1.922366,9.5498199 1.250572,-5.2710045 h -1.467613 V 2.629646 q 1.0542,-0.020671 2.170413,-0.093018 1.116213,-0.082682 2.273767,-0.206706 l -1.560631,6.8109646 q -0.05168,0.2170413 -0.08268,0.4030768 -0.02067,0.1860355 -0.02067,0.2583826 0,0.1757001 0.07235,0.258383 0.08268,0.07235 0.258383,0.07235 0.403077,0 0.868165,-0.5994479 0.475424,-0.5994476 1.023195,-1.7880074 l 0.444418,0.1860354 q -0.661459,1.6433132 -1.488283,2.3564489 -0.816489,0.713136 -2.02572,0.713136 -0.899171,0 -1.38493,-0.382406 -0.48576,-0.382406 -0.48576,-1.0955422 0,-0.1757002 0.04134,-0.4547533 0.04134,-0.2790532 0.113688,-0.578777 z"
         style="font-style:italic;font-size:21.1667px;font-family:'Bodoni Bd BT';-inkscape-font-specification:'Bodoni Bd BT, Italic';stroke-width:0.05;stop-color:#000000"
         id="path3615"
         transform="rotate(-90)" />
      <path
         d="m -53.593553,2.8570226 q -0.434083,0 -0.68213,0.1446943 -0.237712,0.1343589 -0.423748,0.4857592 -0.258382,0.5684417 -0.50643,1.6846544 -0.248047,1.1162127 -0.248047,1.6019719 0,0.3514003 0.248047,0.5374358 0.248048,0.1757001 0.723471,0.1757001 0.444419,0 0.68213,-0.1653648 0.237712,-0.1757002 0.413413,-0.6304535 0.258382,-0.6097829 0.465088,-1.601972 0.217042,-1.0025243 0.217042,-1.4262718 0,-0.3824062 -0.237712,-0.5891122 -0.237712,-0.2170414 -0.651124,-0.2170414 z m -2.284102,8.7229954 h -0.02067 q -1.002524,-0.05168 -1.570966,-0.19637 -0.5271,0.237711 -0.826824,0.671794 -0.289389,0.444418 -0.289389,0.981854 0,0.826824 0.66146,1.312583 0.661459,0.48576 1.808678,0.48576 1.736331,0 3.028243,-0.733807 1.291913,-0.723471 1.291913,-1.612307 0,-0.826824 -1.788007,-0.85783 -0.33073,-0.01034 -0.516765,-0.01034 z m 5.436369,-7.6067827 q 0.113688,-0.992189 0.485759,-1.5192895 0.372071,-0.5271004 0.971519,-0.5271004 0.403076,0 0.630453,0.2377119 0.237712,0.237712 0.237712,0.6304535 0,0.3927415 -0.206706,0.6304535 -0.206706,0.2377119 -0.568442,0.2377119 -0.217041,0 -0.434082,-0.1240236 -0.217042,-0.1343589 -0.310059,-0.1343589 -0.289389,0 -0.434083,0.9921891 -0.05168,0.310059 -0.07235,0.4650886 -0.248048,1.5296248 -1.36426,2.356449 -1.116213,0.8268243 -2.914556,0.8268243 -0.733806,0 -1.374595,-0.1757002 -0.630453,-0.1757001 -1.229901,-0.547771 -0.423747,0.2273766 -0.651124,0.4754239 -0.217041,0.2480473 -0.217041,0.5167652 0,0.3617356 0.496094,0.5374357 0.50643,0.1757002 1.601972,0.2067061 l 2.532149,0.082682 q 1.498619,0.041341 2.098067,0.5271004 0.599447,0.4754242 0.599447,1.5709662 0,1.725996 -1.643313,2.945562 -1.632978,1.219565 -4.154792,1.219565 -1.757001,0 -2.769861,-0.609783 -1.023195,-0.609782 -1.023195,-1.653648 0,-0.68213 0.496095,-1.178225 0.496094,-0.496094 1.498619,-0.806153 -0.589113,-0.361736 -0.85783,-0.785483 -0.268718,-0.4340833 -0.268718,-0.9921896 0,-0.7234712 0.413412,-1.2815776 0.413412,-0.5581064 1.426272,-1.1575539 -0.299724,-0.3203944 -0.434083,-0.6407888 -0.134359,-0.3203944 -0.134359,-0.7338065 0,-1.3539247 1.219566,-2.2944373 1.219565,-0.9405125 3.007573,-0.9405125 1.178224,0 1.984378,0.4030768 0.816489,0.3927415 1.36426,1.2402363 z"
         style="font-style:italic;font-size:21.1667px;font-family:'Bodoni Bd BT';-inkscape-font-specification:'Bodoni Bd BT, Italic';stroke-width:0.05;stop-color:#000000"
         id="path3617"
         transform="rotate(-90)" />
      <g
         aria-label="AMIGA 500"
         transform="rotate(-90)"
         id="text1422"
         style="font-style:italic;font-size:21.1667px;font-family:'Bodoni Bd BT';-inkscape-font-specification:'Bodoni Bd BT, Italic';stroke:#000000;stroke-width:0.0499999;stop-color:#000000">
        <path
           d="m -121.76297,19.830662 h 1.36512 l -0.16795,-1.980929 z m -1.86035,1.950784 v -0.279913 q 0.2713,-0.01723 0.4737,-0.163642 0.19809,-0.150723 0.42633,-0.525377 l 3.00585,-4.904952 h 0.34451 l 0.52107,5.589664 h 0.65887 v 0.28422 h -2.72593 v -0.28422 h 0.64595 l -0.11627,-1.356505 h -1.55029 l -0.64165,1.046447 q -0.0258,0.03876 -0.0431,0.08182 -0.0129,0.03876 -0.0129,0.07321 0,0.0689 0.056,0.111966 0.0603,0.04306 0.14642,0.04306 h 0.36173 v 0.28422 z"
           style="font-size:8.81944px;stroke-width:0.05"
           id="path3620" />
        <path
           d="m -117.91738,21.781446 v -0.28422 q 0.0172,0 0.056,-0.0043 0.0345,-0.0043 0.056,-0.0043 0.29714,0 0.45217,-0.133497 0.15934,-0.133497 0.22824,-0.465088 l 0.85697,-4.086742 q 0.0129,-0.08182 0.0172,-0.124885 0.009,-0.04737 0.009,-0.0646 0,-0.172255 -0.1378,-0.249769 -0.1335,-0.07751 -0.43494,-0.07751 h -0.0517 v -0.262688 h 2.21347 l 0.43925,3.613042 1.8948,-3.613042 h 2.07567 v 0.262688 h -0.63734 l -1.11104,5.210704 h 0.63734 v 0.28422 h -2.69148 v -0.28422 h 0.63304 l 0.99907,-4.672408 -2.58382,4.956628 h -0.31005 l -0.64165,-5.055675 -0.81391,3.961858 q -0.004,0.02153 -0.0129,0.06029 -0.056,0.271301 -0.056,0.378961 0,0.193786 0.12058,0.28422 0.12488,0.08613 0.40049,0.08613 h 0.0861 v 0.28422 z"
           style="font-size:8.81944px;stroke-width:0.05"
           id="path3622" />
        <path
           d="m -110.59656,21.781446 v -0.28422 h 0.70625 l 1.10243,-5.210704 h -0.64596 v -0.262688 h 2.80345 v 0.262688 h -0.68472 l -1.11104,5.210704 h 0.63304 v 0.28422 z"
           style="font-size:8.81944px;stroke-width:0.05"
           id="path3624" />
        <path
           d="m -101.28189,19.99861 q -0.24115,0.986159 -0.88711,1.459859 -0.64595,0.4737 -1.75269,0.4737 -1.13257,0 -1.77853,-0.577053 -0.64595,-0.581359 -0.64595,-1.601968 0,-0.633036 0.23685,-1.274685 0.24115,-0.641649 0.6804,-1.184251 0.5383,-0.663181 1.19287,-1.024915 0.65887,-0.361735 1.31344,-0.361735 0.31006,0 0.60289,0.111965 0.29714,0.107659 0.59428,0.327284 l 0.41772,-0.322977 h 0.2024 l -0.267,1.640725 h -0.32728 q -0.0775,-0.745001 -0.39188,-1.128268 -0.31437,-0.383266 -0.84836,-0.383266 -0.41771,0 -0.69763,0.275607 -0.27561,0.271301 -0.52107,0.934482 -0.30575,0.835435 -0.49954,1.81298 -0.18948,0.977546 -0.18948,1.58905 0,0.486619 0.20671,0.71055 0.21101,0.219625 0.66748,0.219625 0.52538,0 0.76654,-0.340203 0.24546,-0.344509 0.38757,-1.356506 h -0.78376 v -0.288526 h 3.00585 v 0.288526 z"
           style="font-size:8.81944px;stroke-width:0.05"
           id="path3626" />
        <path
           d="m -99.158848,19.830662 h 1.365119 l -0.167949,-1.980929 z m -1.860352,1.950784 v -0.279913 q 0.2713,-0.01723 0.4737,-0.163642 0.19809,-0.150723 0.42633,-0.525377 l 3.005847,-4.904952 h 0.344509 l 0.52107,5.589664 h 0.658875 v 0.28422 H -98.3148 v -0.28422 h 0.645955 l -0.116272,-1.356505 h -1.550292 l -0.641649,1.046447 q -0.02584,0.03876 -0.04306,0.08182 -0.0129,0.03876 -0.0129,0.07321 0,0.0689 0.05598,0.111966 0.06029,0.04306 0.146417,0.04306 h 0.361735 v 0.28422 z"
           style="font-size:8.81944px;stroke-width:0.05"
           id="path3628" />
        <path
           d="m -91.493515,18.667943 0.680406,-2.273762 q 0.06459,-0.215318 0.211012,-0.318671 0.146416,-0.107659 0.387573,-0.107659 h 2.135958 q 0.133497,0 0.202399,-0.04737 0.07321,-0.04737 0.185174,-0.241157 h 0.23685 q -0.249769,0.813904 -0.503845,1.067979 -0.249769,0.254076 -0.925869,0.254076 h -1.808674 l -0.499538,1.597662 q 0.508151,-0.163642 0.861273,-0.232544 0.357429,-0.0689 0.663181,-0.0689 0.839741,0 1.33928,0.426331 0.503845,0.422024 0.503845,1.123962 0,0.844048 -0.788065,1.446939 -0.788066,0.602891 -1.955091,0.602891 -0.701938,0 -1.123962,-0.297139 -0.417718,-0.297139 -0.417718,-0.779452 0,-0.322978 0.180868,-0.521071 0.180867,-0.202399 0.460781,-0.202399 0.279914,0 0.456475,0.159335 0.180867,0.15503 0.180867,0.404799 0,0.292833 -0.249769,0.478007 -0.245463,0.180867 -0.245463,0.254075 0,0.111966 0.172255,0.180868 0.176561,0.0646 0.469394,0.0646 0.641649,0 1.016303,-0.546908 0.37896,-0.546909 0.37896,-1.481391 0,-0.460781 -0.258382,-0.693325 -0.254076,-0.232544 -0.766533,-0.232544 -0.335897,0 -0.684713,0.103353 -0.348816,0.09905 -0.361735,0.09905 -0.07321,0 -0.111965,-0.03015 -0.03876,-0.03445 -0.03876,-0.09905 0,-0.02153 0.01292,-0.07321 0.0043,-0.01292 0.0043,-0.01722 z"
           style="font-size:8.81944px;stroke-width:0.05"
           id="path3630" />
        <path
           d="m -83.892775,16.161637 q -0.387573,0 -0.620117,0.318672 -0.232543,0.318671 -0.456475,1.210089 -0.262688,1.050753 -0.42633,1.989541 -0.163642,0.938788 -0.163642,1.253153 0,0.387573 0.137804,0.551215 0.137804,0.163642 0.452168,0.163642 0.374654,0 0.594279,-0.28422 0.223931,-0.28422 0.43925,-1.072286 0.07321,-0.258382 0.155029,-0.637342 0.08613,-0.383267 0.18948,-0.887112 0.176561,-0.938788 0.23685,-1.330667 0.0646,-0.391879 0.0646,-0.56844 0,-0.378961 -0.14211,-0.542603 -0.137804,-0.163642 -0.460782,-0.163642 z m -2.880959,3.582898 q 0,-0.650262 0.180867,-1.278991 0.185174,-0.62873 0.53399,-1.162719 0.439249,-0.6761 1.007689,-1.024916 0.572747,-0.353122 1.240234,-0.353122 0.805291,0 1.270379,0.568441 0.465087,0.564134 0.465087,1.550292 0,0.628729 -0.180867,1.257459 -0.180868,0.624423 -0.516764,1.158413 -0.426331,0.689018 -1.00769,1.059366 -0.577053,0.370348 -1.231621,0.370348 -0.831129,0 -1.296217,-0.568441 -0.465087,-0.56844 -0.465087,-1.57613 z"
           style="font-size:8.81944px;stroke-width:0.05"
           id="path3632" />
        <path
           d="m -78.548575,16.161637 q -0.387573,0 -0.620116,0.318672 -0.232544,0.318671 -0.456475,1.210089 -0.262689,1.050753 -0.426331,1.989541 -0.163642,0.938788 -0.163642,1.253153 0,0.387573 0.137804,0.551215 0.137804,0.163642 0.452169,0.163642 0.374654,0 0.594278,-0.28422 0.223931,-0.28422 0.43925,-1.072286 0.07321,-0.258382 0.155029,-0.637342 0.08613,-0.383267 0.18948,-0.887112 0.176561,-0.938788 0.23685,-1.330667 0.0646,-0.391879 0.0646,-0.56844 0,-0.378961 -0.14211,-0.542603 -0.137804,-0.163642 -0.460782,-0.163642 z m -2.880959,3.582898 q 0,-0.650262 0.180867,-1.278991 0.185174,-0.62873 0.53399,-1.162719 0.439249,-0.6761 1.00769,-1.024916 0.572746,-0.353122 1.240233,-0.353122 0.805291,0 1.270379,0.568441 0.465087,0.564134 0.465087,1.550292 0,0.628729 -0.180867,1.257459 -0.180868,0.624423 -0.516764,1.158413 -0.42633,0.689018 -1.00769,1.059366 -0.577053,0.370348 -1.231621,0.370348 -0.831129,0 -1.296217,-0.568441 -0.465087,-0.56844 -0.465087,-1.57613 z"
           style="font-size:8.81944px;stroke-width:0.05"
           id="path3634" />
      </g>
    </g>
  </g>
</svg>
