<?xml version="1.0" encoding="UTF-8" standalone="no"?>
<!-- Created with Inkscape (http://www.inkscape.org/) -->

<svg
   width="126.49999mm"
   height="28.500004mm"
   viewBox="0 0 126.49999 28.500004"
   version="1.1"
   id="svg5"
   inkscape:version="1.2.1 (9c6d41e410, 2022-07-14)"
   sodipodi:docname="minimig_side2.svg"
   xmlns:inkscape="http://www.inkscape.org/namespaces/inkscape"
   xmlns:sodipodi="http://sodipodi.sourceforge.net/DTD/sodipodi-0.dtd"
   xmlns="http://www.w3.org/2000/svg"
   xmlns:svg="http://www.w3.org/2000/svg">
  <sodipodi:namedview
     id="namedview7"
     pagecolor="#c3c3c3"
     bordercolor="#eeeeee"
     borderopacity="1"
     inkscape:showpageshadow="0"
     inkscape:pageopacity="0"
     inkscape:pagecheckerboard="0"
     inkscape:deskcolor="#505050"
     inkscape:document-units="mm"
     showgrid="false"
     inkscape:zoom="2.0888419"
     inkscape:cx="163.48772"
     inkscape:cy="128.30076"
     inkscape:window-width="1920"
     inkscape:window-height="1009"
     inkscape:window-x="-8"
     inkscape:window-y="-8"
     inkscape:window-maximized="1"
     inkscape:current-layer="layer1" />
  <defs
     id="defs2" />
  <g
     inkscape:label="Layer 1"
     inkscape:groupmode="layer"
     id="layer1"
     transform="translate(-39.929736,-112.14204)">
    <path
       d="m 40.189067,140.38271 v -9.55132 h 2.999555 v -8.8787 h -2.999555 v -8.87869 -0.67263 h 9.373611 v 3.22862 h 8.248778 v -3.22862 h 8.248778 v 3.22862 h 8.248778 v -3.22862 h 8.248778 v 3.22862 h 8.248778 v -3.22862 h 8.248778 v 3.22862 h 8.248774 v -3.22862 h 8.24878 v 3.22862 h 8.24878 v -3.22862 h 8.24877 v 3.22862 h 8.24878 v -3.22862 h 8.24878 v 3.22862 h 8.24878 v -3.22862 h 9.37361 v 9.55132 h -2.99956 v 8.8787 h 2.99956 v 8.87869 0.67263 h -9.37361 v -3.22862 h -8.24878 v 3.22862 h -8.24878 v -3.22862 h -8.24878 v 3.22862 h -8.24877 v -3.22862 h -8.24878 v 3.22862 h -8.24878 v -3.22862 h -8.248774 v 3.22862 h -8.248778 v -3.22862 H 82.55779 v 3.22862 h -8.248778 v -3.22862 h -8.248778 v 3.22862 h -8.248778 v -3.22862 h -8.248778 v 3.22862 z"
       id="front_outsideCutPath"
       stroke="#FF0000"
       stroke-width="0.1"
       style="font-size:12px;fill:none;fill-rule:evenodd;stroke:#000000;stroke-width:0.518663;stroke-linecap:round;stroke-dasharray:none;stroke-opacity:1"
       vector-effect="non-scaling-stroke" />
    <rect
       style="font-size:12px;fill:none;fill-rule:evenodd;stroke:#000000;stroke-width:0.0501598;stroke-linecap:round;stroke-dasharray:none;stroke-opacity:1;stop-color:#000000"
       id="rect1124"
       width="14.949841"
       height="14.949841"
       x="78.954811"
       y="-132.86696"
       transform="scale(1,-1)" />
    <rect
       style="font-size:12px;fill:none;fill-rule:evenodd;stroke:#000000;stroke-width:0.0501598;stroke-linecap:round;stroke-dasharray:none;stroke-opacity:1;stop-color:#000000"
       id="rect1126"
       width="14.949841"
       height="14.949841"
       x="59.954815"
       y="-132.86696"
       transform="scale(1,-1)" />
    <rect
       style="font-size:12px;fill:none;fill-rule:evenodd;stroke:#000000;stroke-width:0.0293408;stroke-linecap:round;stroke-dasharray:none;stroke-opacity:1;stop-color:#000000"
       id="rect1180"
       width="10.970659"
       height="6.9706593"
       x="139.94441"
       y="-135.12737"
       transform="scale(1,-1)" />
  </g>
</svg>
