<?xml version="1.0" encoding="UTF-8" standalone="no"?>
<svg
   width="384mm"
   height="255mm"
   viewBox="0 0 384 255"
   version="1.1"
   preserveAspectRatio="xMidYMid meet"
   id="svg15"
   sodipodi:docname="minimig_case.svg"
   inkscape:version="1.2.1 (9c6d41e410, 2022-07-14)"
   xmlns:inkscape="http://www.inkscape.org/namespaces/inkscape"
   xmlns:sodipodi="http://sodipodi.sourceforge.net/DTD/sodipodi-0.dtd"
   xmlns="http://www.w3.org/2000/svg"
   xmlns:svg="http://www.w3.org/2000/svg">
  <defs
     id="defs19" />
  <sodipodi:namedview
     id="namedview17"
     pagecolor="#505050"
     bordercolor="#eeeeee"
     borderopacity="1"
     inkscape:showpageshadow="0"
     inkscape:pageopacity="0"
     inkscape:pagecheckerboard="0"
     inkscape:deskcolor="#505050"
     inkscape:document-units="mm"
     showgrid="false"
     inkscape:lockguides="true"
     inkscape:zoom="0.58952419"
     inkscape:cx="704.80568"
     inkscape:cy="551.29205"
     inkscape:window-width="1920"
     inkscape:window-height="1009"
     inkscape:window-x="-8"
     inkscape:window-y="-8"
     inkscape:window-maximized="1"
     inkscape:current-layer="svg15" />
  <path
     d="m 0,229 v 8.875 h 3 v 8.25 H 0 v 8.25 0.625 h 9.375 v -3 h 8.25 v 3 h 8.25 v -3 h 8.25 v 3 h 8.25 v -3 h 8.25 v 3 h 8.25 v -3 h 8.25 v 3 h 8.25 v -3 h 8.25 v 3 h 8.25 v -3 h 8.25 v 3 h 8.25 v -3 h 8.25 v 3 H 126 v -8.875 h -3 v -8.25 h 3 V 229.625 229 h -9.375 v 3 h -8.25 v -3 h -8.25 v 3 h -8.25 v -3 h -8.25 v 3 h -8.25 v -3 h -8.25 v 3 h -8.25 v -3 h -8.25 v 3 h -8.25 v -3 h -8.25 v 3 h -8.25 v -3 h -8.25 v 3 h -8.25 v -3 z"
     id="front_outsideCutPath"
     stroke="#FF0000"
     stroke-width="0.1"
     style="font-size:12px;fill:none;fill-rule:evenodd;stroke:#000000;stroke-width:0.5;stroke-linecap:round;stroke-dasharray:none;stroke-opacity:1"
     vector-effect="non-scaling-stroke" />
  <path
     d="m 132,229 v 8.875 h -3 v 8.25 h 3 v 8.25 0.625 h 6.375 v -3 h 8.25 v 3 h 8.25 v -3 h 8.25 v 3 h 8.25 v -3 h 8.25 v 3 h 8.25 v -3 h 8.25 v 3 h 8.25 v -3 h 8.25 v 3 h 8.25 v -3 h 8.25 v 3 h 8.25 v -3 h 8.25 v 3 H 252 v -8.875 h 3 v -8.25 h -3 V 229.625 229 h -6.375 v 3 h -8.25 v -3 h -8.25 v 3 h -8.25 v -3 h -8.25 v 3 h -8.25 v -3 h -8.25 v 3 h -8.25 v -3 h -8.25 v 3 h -8.25 v -3 h -8.25 v 3 h -8.25 v -3 h -8.25 v 3 h -8.25 v -3 z"
     id="left_outsideCutPath"
     stroke="#FF0000"
     stroke-width="0.1"
     style="font-size:12px;fill:none;fill-rule:evenodd;stroke:#000000;stroke-width:0.5;stroke-linecap:round;stroke-dasharray:none;stroke-opacity:1"
     vector-effect="non-scaling-stroke" />
  <path
     d="m 261,132 v 6.375 h -3 v 8.25 h 3 v 8.25 h -3 v 8.25 h 3 v 8.25 h -3 v 8.25 h 3 v 8.25 h -3 v 8.25 h 3 v 8.25 h -3 v 8.25 h 3 v 8.25 h -3 v 8.25 h 3 v 8.25 h -3 v 8.25 h 3 V 252 h 6.375 v 3 h 8.25 v -3 h 8.25 v 3 h 8.25 v -3 h 8.25 v 3 h 8.25 v -3 h 8.25 v 3 h 8.25 v -3 h 8.25 v 3 h 8.25 v -3 h 8.25 v 3 h 8.25 v -3 h 8.25 v 3 h 8.25 v -3 H 381 v -6.375 h 3 v -8.25 h -3 v -8.25 h 3 v -8.25 h -3 v -8.25 h 3 v -8.25 h -3 v -8.25 h 3 v -8.25 h -3 v -8.25 h 3 v -8.25 h -3 v -8.25 h 3 v -8.25 h -3 v -8.25 h 3 v -8.25 h -3 V 132 h -6.375 v -3 h -8.25 v 3 h -8.25 v -3 h -8.25 v 3 h -8.25 v -3 h -8.25 v 3 h -8.25 v -3 h -8.25 v 3 h -8.25 v -3 h -8.25 v 3 h -8.25 v -3 h -8.25 v 3 h -8.25 v -3 h -8.25 v 3 z"
     id="top_outsideCutPath"
     stroke="#FF0000"
     stroke-width="0.1"
     vector-effect="non-scaling-stroke"
     style="font-size:12px;fill:none;fill-rule:evenodd;stroke:#000000;stroke-width:0.5;stroke-linecap:round;stroke-dasharray:none;stroke-opacity:1" />
  <path
     d="m 0,200 v 8.875 h 3 v 8.25 H 0 v 8.25 0.625 h 9.375 v -3 h 8.25 v 3 h 8.25 v -3 h 8.25 v 3 h 8.25 v -3 h 8.25 v 3 h 8.25 v -3 h 8.25 v 3 h 8.25 v -3 h 8.25 v 3 h 8.25 v -3 h 8.25 v 3 h 8.25 v -3 h 8.25 v 3 H 126 v -8.875 h -3 v -8.25 h 3 V 200.625 200 h -9.375 v 3 h -8.25 v -3 h -8.25 v 3 h -8.25 v -3 h -8.25 v 3 h -8.25 v -3 h -8.25 v 3 h -8.25 v -3 h -8.25 v 3 h -8.25 v -3 h -8.25 v 3 h -8.25 v -3 h -8.25 v 3 h -8.25 v -3 z"
     id="back_outsideCutPath"
     stroke="#FF0000"
     stroke-width="0.1"
     style="font-size:12px;fill:none;fill-rule:evenodd;stroke:#000000;stroke-width:0.5;stroke-linecap:round;stroke-dasharray:none;stroke-opacity:1"
     vector-effect="non-scaling-stroke" />
  <path
     d="m 132,200 v 8.875 h -3 v 8.25 h 3 v 8.25 0.625 h 6.375 v -3 h 8.25 v 3 h 8.25 v -3 h 8.25 v 3 h 8.25 v -3 h 8.25 v 3 h 8.25 v -3 h 8.25 v 3 h 8.25 v -3 h 8.25 v 3 h 8.25 v -3 h 8.25 v 3 h 8.25 v -3 h 8.25 v 3 H 252 v -8.875 h 3 v -8.25 h -3 V 200.625 200 h -6.375 v 3 h -8.25 v -3 h -8.25 v 3 h -8.25 v -3 h -8.25 v 3 h -8.25 v -3 h -8.25 v 3 h -8.25 v -3 h -8.25 v 3 h -8.25 v -3 h -8.25 v 3 h -8.25 v -3 h -8.25 v 3 h -8.25 v -3 z"
     id="right_outsideCutPath"
     stroke="#FF0000"
     stroke-width="0.1"
     style="font-size:12px;fill:none;fill-rule:evenodd;stroke:#000000;stroke-width:0.5;stroke-linecap:round;stroke-dasharray:none;stroke-opacity:1"
     vector-effect="non-scaling-stroke" />
  <path
     d="m 261,3 v 6.375 h -3 v 8.25 h 3 v 8.25 h -3 v 8.25 h 3 v 8.25 h -3 v 8.25 h 3 v 8.25 h -3 v 8.25 h 3 v 8.25 h -3 v 8.25 h 3 v 8.25 h -3 v 8.25 h 3 v 8.25 h -3 v 8.25 h 3 V 123 h 6.375 v 3 h 8.25 v -3 h 8.25 v 3 h 8.25 v -3 h 8.25 v 3 h 8.25 v -3 h 8.25 v 3 h 8.25 v -3 h 8.25 v 3 h 8.25 v -3 h 8.25 v 3 h 8.25 v -3 h 8.25 v 3 h 8.25 v -3 H 381 v -6.375 h 3 v -8.25 h -3 v -8.25 h 3 v -8.25 h -3 v -8.25 h 3 v -8.25 h -3 v -8.25 h 3 v -8.25 h -3 v -8.25 h 3 v -8.25 h -3 v -8.25 h 3 v -8.25 h -3 v -8.25 h 3 v -8.25 h -3 V 3 h -6.375 V 0 h -8.25 v 3 h -8.25 V 0 h -8.25 v 3 h -8.25 V 0 h -8.25 v 3 h -8.25 V 0 h -8.25 v 3 h -8.25 V 0 h -8.25 v 3 h -8.25 V 0 h -8.25 v 3 h -8.25 V 0 h -8.25 v 3 z"
     id="bottom_outsideCutPath"
     stroke="#FF0000"
     stroke-width="0.1"
     style="font-size:12px;fill:none;fill-rule:evenodd;stroke:#000000;stroke-width:0.5;stroke-linecap:round;stroke-dasharray:none;stroke-opacity:1"
     vector-effect="non-scaling-stroke" />
  <circle
     style="font-size:12px;fill:none;fill-rule:evenodd;stroke:#000000;stroke-width:0.0570985;stroke-linecap:round;stroke-dasharray:none;stroke-opacity:1;stop-color:#000000"
     id="path972"
     cx="377.75"
     cy="248.75"
     r="1.7214508" />
  <circle
     style="font-size:12px;fill:none;fill-rule:evenodd;stroke:#000000;stroke-width:0.0570985;stroke-linecap:round;stroke-dasharray:none;stroke-opacity:1;stop-color:#000000"
     id="circle1008"
     cx="264.25"
     cy="135.25"
     r="1.7214508" />
  <circle
     style="font-size:12px;fill:none;fill-rule:evenodd;stroke:#000000;stroke-width:0.0570985;stroke-linecap:round;stroke-dasharray:none;stroke-opacity:1;stop-color:#000000"
     id="circle1014"
     cx="264.25"
     cy="248.75"
     r="1.7214508" />
  <circle
     style="font-size:12px;fill:none;fill-rule:evenodd;stroke:#000000;stroke-width:0.0570985;stroke-linecap:round;stroke-dasharray:none;stroke-opacity:1;stop-color:#000000"
     id="circle1020"
     cx="377.75"
     cy="135.25"
     r="1.7214508" />
  <circle
     style="font-size:12px;fill:none;fill-rule:evenodd;stroke:#000000;stroke-width:0.0570985;stroke-linecap:round;stroke-dasharray:none;stroke-opacity:1;stop-color:#000000"
     id="circle1026"
     cx="264.25"
     cy="119.75"
     r="1.7214508" />
  <circle
     style="font-size:12px;fill:none;fill-rule:evenodd;stroke:#000000;stroke-width:0.0570985;stroke-linecap:round;stroke-dasharray:none;stroke-opacity:1;stop-color:#000000"
     id="circle1032"
     cx="377.75"
     cy="119.75"
     r="1.7214508" />
  <circle
     style="font-size:12px;fill:none;fill-rule:evenodd;stroke:#000000;stroke-width:0.0570985;stroke-linecap:round;stroke-dasharray:none;stroke-opacity:1;stop-color:#000000"
     id="circle1038"
     cx="264.25"
     cy="6.2500005"
     r="1.7214508" />
  <circle
     style="font-size:12px;fill:none;fill-rule:evenodd;stroke:#000000;stroke-width:0.0570985;stroke-linecap:round;stroke-dasharray:none;stroke-opacity:1;stop-color:#000000"
     id="circle1044"
     cx="377.75"
     cy="6.2500005"
     r="1.7214508" />
  <rect
     style="font-size:12px;fill:none;fill-rule:evenodd;stroke:#000000;stroke-width:0.0501598;stroke-linecap:round;stroke-dasharray:none;stroke-opacity:1;stop-color:#000000"
     id="rect1124"
     width="14.949841"
     height="14.949841"
     x="37.025082"
     y="236.02516" />
  <rect
     style="font-size:12px;fill:none;fill-rule:evenodd;stroke:#000000;stroke-width:0.0501598;stroke-linecap:round;stroke-dasharray:none;stroke-opacity:1;stop-color:#000000"
     id="rect1126"
     width="14.949841"
     height="14.949841"
     x="19.02508"
     y="236.02509" />
  <rect
     style="font-size:12px;fill:none;fill-rule:evenodd;stroke:#000000;stroke-width:0.0293408;stroke-linecap:round;stroke-dasharray:none;stroke-opacity:1;stop-color:#000000"
     id="rect1180"
     width="10.970659"
     height="6.9706588"
     x="102.01466"
     y="235.02419" />
  <rect
     style="font-size:12px;fill:none;fill-rule:evenodd;stroke:#000000;stroke-width:0.0408964;stroke-linecap:round;stroke-dasharray:none;stroke-opacity:1;stop-color:#000000"
     id="rect1182"
     width="29.959103"
     height="4.9591036"
     x="143.41319"
     y="246.02045" />
  <rect
     style="font-size:12px;fill:none;fill-rule:evenodd;stroke:#000000;stroke-width:0.0743794;stroke-linecap:round;stroke-dasharray:none;stroke-opacity:1;stop-color:#000000"
     id="rect1184"
     width="32.925621"
     height="14.925621"
     x="73.037193"
     y="206.03719" />
  <rect
     style="font-size:12px;fill:none;fill-rule:evenodd;stroke:#000000;stroke-width:0.0743794;stroke-linecap:round;stroke-dasharray:none;stroke-opacity:1;stop-color:#000000"
     id="rect1186"
     width="32.925621"
     height="14.925621"
     x="37.037189"
     y="206.03719" />
  <rect
     style="font-size:12px;fill:none;fill-rule:evenodd;stroke:#000000;stroke-width:0.0381262;stroke-linecap:round;stroke-dasharray:none;stroke-opacity:1;stop-color:#000000"
     id="rect1188"
     width="9.961874"
     height="12.961874"
     x="142.28976"
     y="208.01906" />
  <rect
     style="font-size:12px;fill:none;fill-rule:evenodd;stroke:#000000;stroke-width:0.0743794;stroke-linecap:round;stroke-dasharray:none;stroke-opacity:1;stop-color:#000000"
     id="rect1190"
     width="32.925621"
     height="14.925621"
     x="155.03719"
     y="206.03719" />
  <rect
     style="font-size:12px;fill:none;fill-rule:evenodd;stroke:#000000;stroke-width:0.0743794;stroke-linecap:round;stroke-dasharray:none;stroke-opacity:1;stop-color:#000000"
     id="rect1192"
     width="32.925621"
     height="14.925621"
     x="205.03719"
     y="206.03719" />
  <rect
     style="font-size:12px;fill:none;fill-rule:evenodd;stroke:#000000;stroke-width:0.0381262;stroke-linecap:round;stroke-dasharray:none;stroke-opacity:1;stop-color:#000000"
     id="rect1194"
     width="12.961874"
     height="9.961874"
     x="190.01906"
     y="211.01906" />
  <rect
     style="font-size:12px;fill:none;fill-rule:evenodd;stroke:#000000;stroke-width:0.0501598;stroke-linecap:round;stroke-dasharray:none;stroke-opacity:1;stop-color:#000000"
     id="rect1230"
     width="14.949841"
     height="14.949841"
     x="326.02509"
     y="233.3257" />
  <rect
     style="font-size:12px;fill:none;fill-rule:evenodd;stroke:#000000;stroke-width:0.0501598;stroke-linecap:round;stroke-dasharray:none;stroke-opacity:1;stop-color:#000000"
     id="rect1232"
     width="14.949841"
     height="14.949841"
     x="271.02509"
     y="212.02509" />
  <text
     xml:space="preserve"
     style="font-size:2.82223px;font-family:Calibri;-inkscape-font-specification:Calibri;fill:none;stroke:#000000;stroke-width:0.0499999;stroke-dasharray:none;stroke-opacity:1;stop-color:#000000"
     x="99.332237"
     y="98.697517"
     id="text1354"><tspan
       sodipodi:role="line"
       id="tspan1352"
       style="font-style:italic;font-variant:normal;font-weight:normal;font-stretch:normal;font-size:2.82223px;font-family:'Bodoni Bd BT';-inkscape-font-specification:'Bodoni Bd BT, Italic';font-variant-ligatures:normal;font-variant-caps:normal;font-variant-numeric:normal;font-variant-east-asian:normal;stroke-width:0.05"
       x="99.332237"
       y="98.697517" /></text>
  <text
     xml:space="preserve"
     style="font-style:italic;font-variant:normal;font-weight:normal;font-stretch:normal;font-size:2.82223px;font-family:'Bodoni Bd BT';-inkscape-font-specification:'Bodoni Bd BT, Italic';font-variant-ligatures:normal;font-variant-caps:normal;font-variant-numeric:normal;font-variant-east-asian:normal;fill:#000000;stroke:#000000;stroke-width:0.0499999;stroke-dasharray:none;stroke-opacity:1;stop-color:#000000;fill-opacity:1"
     x="103.53719"
     y="102.08926"
     id="text1408"><tspan
       sodipodi:role="line"
       id="tspan1406"
       style="stroke-width:0.05;fill:#000000;fill-opacity:1"
       x="103.53719"
       y="102.08926" /></text>
  <text
     xml:space="preserve"
     style="font-style:italic;font-variant:normal;font-weight:normal;font-stretch:normal;font-size:2.82223px;font-family:'Bodoni Bd BT';-inkscape-font-specification:'Bodoni Bd BT, Italic';font-variant-ligatures:normal;font-variant-caps:normal;font-variant-numeric:normal;font-variant-east-asian:normal;fill:#000000;fill-opacity:1;stroke:#000000;stroke-width:0.0499999;stroke-dasharray:none;stroke-opacity:1;stop-color:#000000"
     x="7.9043412"
     y="21.122227"
     id="text1412"><tspan
       sodipodi:role="line"
       id="tspan1410"
       style="font-style:italic;font-variant:normal;font-weight:normal;font-stretch:normal;font-size:21.1667px;font-family:'Bodoni Bd BT';-inkscape-font-specification:'Bodoni Bd BT, Italic';font-variant-ligatures:normal;font-variant-caps:normal;font-variant-numeric:normal;font-variant-east-asian:normal;stroke-width:0.05"
       x="7.9043412"
       y="21.122227">Minimig</tspan><tspan
       sodipodi:role="line"
       style="stroke-width:0.05"
       x="7.9043412"
       y="31.350046"
       id="tspan1414" /></text>
  <text
     xml:space="preserve"
     style="font-style:italic;font-variant:normal;font-weight:normal;font-stretch:normal;font-size:21.1667px;font-family:'Bodoni Bd BT';-inkscape-font-specification:'Bodoni Bd BT, Italic';font-variant-ligatures:normal;font-variant-caps:normal;font-variant-numeric:normal;font-variant-east-asian:normal;fill:#000000;fill-opacity:1;stroke:#000000;stroke-width:0.0499999;stroke-dasharray:none;stroke-opacity:1;stop-color:#000000"
     x="35.007065"
     y="33.660618"
     id="text1422"><tspan
       sodipodi:role="line"
       id="tspan1420"
       style="font-style:italic;font-variant:normal;font-weight:normal;font-stretch:normal;font-size:8.81944px;font-family:'Bodoni Bd BT';-inkscape-font-specification:'Bodoni Bd BT, Italic';font-variant-ligatures:normal;font-variant-caps:normal;font-variant-numeric:normal;font-variant-east-asian:normal;stroke-width:0.05"
       x="35.007065"
       y="33.660618">AMIGA 500</tspan></text>
</svg>
