<?xml version="1.0" encoding="UTF-8" standalone="no"?>
<!-- Created with Inkscape (http://www.inkscape.org/) -->

<svg
   width="126.5mm"
   height="28.500002mm"
   viewBox="0 0 126.5 28.500002"
   version="1.1"
   id="svg5"
   inkscape:version="1.2.1 (9c6d41e410, 2022-07-14)"
   sodipodi:docname="minimig_side3.svg"
   xmlns:inkscape="http://www.inkscape.org/namespaces/inkscape"
   xmlns:sodipodi="http://sodipodi.sourceforge.net/DTD/sodipodi-0.dtd"
   xmlns="http://www.w3.org/2000/svg"
   xmlns:svg="http://www.w3.org/2000/svg">
  <sodipodi:namedview
     id="namedview7"
     pagecolor="#c3c3c3"
     bordercolor="#eeeeee"
     borderopacity="1"
     inkscape:showpageshadow="0"
     inkscape:pageopacity="0"
     inkscape:pagecheckerboard="0"
     inkscape:deskcolor="#505050"
     inkscape:document-units="mm"
     showgrid="false"
     inkscape:zoom="2.0888419"
     inkscape:cx="238.64899"
     inkscape:cy="128.30076"
     inkscape:window-width="1920"
     inkscape:window-height="1009"
     inkscape:window-x="-8"
     inkscape:window-y="-8"
     inkscape:window-maximized="1"
     inkscape:current-layer="layer1" />
  <defs
     id="defs2" />
  <g
     inkscape:label="Layer 1"
     inkscape:groupmode="layer"
     id="layer1"
     transform="translate(-22.374851,-85.988841)">
    <path
       d="m 25.633737,114.22951 v -9.55132 h -2.999555 v -8.878697 h 2.999555 V 86.9208 86.248172 h 6.374056 v 3.228615 h 8.248778 v -3.228615 h 8.248778 v 3.228615 h 8.248778 v -3.228615 h 8.248778 v 3.228615 h 8.248778 v -3.228615 h 8.248778 v 3.228615 h 8.248778 v -3.228615 h 8.248778 v 3.228615 h 8.248783 v -3.228615 h 8.24877 v 3.228615 h 8.24878 v -3.228615 h 8.24878 v 3.228615 h 8.24878 v -3.228615 h 6.37405 v 9.551321 h 2.99956 v 8.878697 h -2.99956 v 8.87869 0.67263 h -6.37405 v -3.22862 h -8.24878 v 3.22862 h -8.24878 v -3.22862 h -8.24878 v 3.22862 h -8.24877 v -3.22862 h -8.248783 v 3.22862 h -8.248778 v -3.22862 h -8.248778 v 3.22862 h -8.248778 v -3.22862 h -8.248778 v 3.22862 h -8.248778 v -3.22862 h -8.248778 v 3.22862 h -8.248778 v -3.22862 h -8.248778 v 3.22862 z"
       id="right_outsideCutPath"
       stroke="#FF0000"
       stroke-width="0.1"
       style="font-size:12px;fill:none;fill-rule:evenodd;stroke:#000000;stroke-width:0.518663;stroke-linecap:round;stroke-dasharray:none;stroke-opacity:1"
       vector-effect="non-scaling-stroke" />
    <rect
       style="font-size:12px;fill:none;fill-rule:evenodd;stroke:#000000;stroke-width:0.0381262;stroke-linecap:round;stroke-dasharray:none;stroke-opacity:1;stop-color:#000000"
       id="rect1188"
       width="9.961874"
       height="12.961874"
       x="36.893913"
       y="-104.21978"
       transform="scale(1,-1)" />
    <rect
       style="font-size:12px;fill:none;fill-rule:evenodd;stroke:#000000;stroke-width:0.0743794;stroke-linecap:round;stroke-dasharray:none;stroke-opacity:1;stop-color:#000000"
       id="rect1190"
       width="32.925621"
       height="14.925621"
       x="48.662037"
       y="-106.20165"
       transform="scale(1,-1)" />
    <rect
       style="font-size:12px;fill:none;fill-rule:evenodd;stroke:#000000;stroke-width:0.0743794;stroke-linecap:round;stroke-dasharray:none;stroke-opacity:1;stop-color:#000000"
       id="rect1192"
       width="32.925621"
       height="14.925621"
       x="98.662033"
       y="-106.20165"
       transform="scale(1,-1)" />
    <rect
       style="font-size:12px;fill:none;fill-rule:evenodd;stroke:#000000;stroke-width:0.0381262;stroke-linecap:round;stroke-dasharray:none;stroke-opacity:1;stop-color:#000000"
       id="rect1194"
       width="12.961874"
       height="9.961874"
       x="83.643906"
       y="-101.21978"
       transform="scale(1,-1)" />
  </g>
</svg>
